<svg xmlns="http://www.w3.org/2000/svg" xmlns:xlink="http://www.w3.org/1999/xlink" width="1080" zoomAndPan="magnify" viewBox="0 0 810 809.999993" height="1080" preserveAspectRatio="xMidYMid meet" version="1.0"><defs><clipPath id="a289ffc2c8"><path d="M 100 30 L 708 30 L 708 763 L 100 763 Z M 100 30 " clip-rule="nonzero"/></clipPath><clipPath id="3ba0ff954c"><path d="M 809.484375 109.0625 L 632.441406 840.953125 L 12.082031 690.886719 L 189.125 -41.003906 Z M 809.484375 109.0625 " clip-rule="nonzero"/></clipPath><clipPath id="f57125feee"><path d="M 809.484375 109.0625 L 632.441406 840.953125 L 12.082031 690.886719 L 189.125 -41.003906 Z M 809.484375 109.0625 " clip-rule="nonzero"/></clipPath></defs><rect x="-81" width="972" fill="#ffffff" y="-80.999999" height="971.999992" fill-opacity="1"/><rect x="-81" width="972" fill="#ffffff" y="-80.999999" height="971.999992" fill-opacity="1"/><g clip-path="url(#a289ffc2c8)"><g clip-path="url(#3ba0ff954c)"><g clip-path="url(#f57125feee)"><path fill="#7f95e4" d="M 679.21875 99.597656 C 648.515625 70.542969 600.921875 68.257812 558.351562 70.003906 C 515.777344 71.742188 469.835938 74.875 433.546875 52.625 C 422.570312 45.898438 412.746094 36.949219 400.4375 33.023438 C 376.933594 25.519531 351.152344 39.148438 337.429688 58.539062 C 323.707031 77.921875 319.121094 101.878906 314.042969 124.9375 C 308.964844 147.996094 302.558594 171.871094 286.265625 189.296875 C 253.199219 224.664062 193.035156 220.945312 152.363281 248.066406 C 121.472656 268.664062 105.503906 305.21875 101.914062 341.472656 C 98.320312 377.726562 105.550781 414.28125 112.742188 450.242188 C 123.394531 503.515625 134.171875 557.199219 155.636719 607.558594 C 175.59375 654.386719 205.585938 698.675781 248.316406 728.445312 C 291.050781 758.222656 347.699219 771.730469 397.078125 756.214844 C 437.585938 743.484375 475.25 712.125 517.285156 721.082031 C 541.984375 726.34375 562.875 745.214844 588.050781 746.773438 C 645.546875 750.332031 672.023438 677.136719 676.097656 633.675781 C 680.972656 581.667969 661.542969 532.542969 633.242188 488.570312 C 614.941406 460.125 590.355469 431.460938 593.796875 396.265625 C 598.921875 343.820312 650.101562 301.472656 677.046875 258.933594 C 706.085938 213.101562 725.882812 143.757812 679.21875 99.597656 " fill-opacity="1" fill-rule="nonzero"/></g></g></g></svg>