<svg xmlns="http://www.w3.org/2000/svg" xmlns:xlink="http://www.w3.org/1999/xlink" width="1080" zoomAndPan="magnify" viewBox="0 0 810 809.999993" height="1080" preserveAspectRatio="xMidYMid meet" version="1.0"><defs><clipPath id="c928fa7a44"><path d="M 26 226 L 731 226 L 731 620 L 26 620 Z M 26 226 " clip-rule="nonzero"/></clipPath><clipPath id="bef22e4dd5"><path d="M 608.066406 66.160156 L 824.855469 410.027344 L 177.722656 818.007812 L -39.066406 474.140625 Z M 608.066406 66.160156 " clip-rule="nonzero"/></clipPath><clipPath id="00778b2267"><path d="M 608.066406 66.160156 L 824.855469 410.027344 L 177.722656 818.007812 L -39.066406 474.140625 Z M 608.066406 66.160156 " clip-rule="nonzero"/></clipPath></defs><rect x="-81" width="972" fill="#ffffff" y="-80.999999" height="971.999992" fill-opacity="1"/><rect x="-81" width="972" fill="#ffffff" y="-80.999999" height="971.999992" fill-opacity="1"/><g clip-path="url(#c928fa7a44)"><g clip-path="url(#bef22e4dd5)"><g clip-path="url(#00778b2267)"><path fill="#ffb6c1" d="M 624.890625 535.128906 C 606.8125 545.136719 584.410156 537.953125 578.800781 516.867188 C 575.976562 506.269531 575.554688 495.679688 578.058594 485.082031 C 581.429688 470.835938 581.785156 456.207031 583.804688 441.789062 C 585.980469 426.363281 590.445312 411.714844 595.472656 397.125 C 604.386719 371.207031 612.578125 345.070312 620.417969 318.804688 C 626.664062 297.910156 632.3125 276.742188 642.695312 257.308594 C 648.121094 247.148438 657.042969 239.953125 664.492188 231.554688 C 668.617188 226.894531 675.101562 225.855469 681.175781 226.207031 C 697.964844 227.175781 712.769531 232.15625 721.707031 248.675781 C 729.183594 258.523438 730.714844 270.636719 730.941406 282.9375 C 731.441406 310.476562 725.234375 336.878906 717.085938 362.992188 C 709.875 386.109375 702.917969 409.335938 692.347656 431.167969 C 678.253906 460.273438 663.914062 489.230469 644.046875 515.136719 C 638.28125 522.640625 633.570312 530.324219 624.890625 535.128906 Z M 435.40625 480.375 C 433.445312 470.542969 430.066406 461.089844 429.660156 450.847656 C 428.609375 424.304688 425.589844 397.949219 419.878906 371.96875 C 415.925781 353.984375 409.976562 336.59375 403.65625 319.335938 C 396.324219 299.328125 386.378906 280.996094 370.457031 266.199219 C 344.488281 242.066406 312.671875 252.40625 294.039062 272.40625 C 285.714844 281.335938 287.867188 292.335938 289.886719 302.984375 C 293.726562 323.257812 302.648438 341.925781 309.109375 361.347656 C 317.613281 386.882812 325.527344 412.632812 334.878906 437.910156 C 341.640625 456.203125 349.691406 473.703125 358.734375 489.542969 C 364.515625 497.742188 369.417969 505.304688 370.46875 514.152344 C 371.839844 525.699219 387.863281 539.453125 401.425781 540.34375 C 408.296875 540.796875 415.105469 540.0625 420.484375 534.710938 C 435.851562 519.429688 439.519531 501.027344 435.40625 480.375 Z M 244.707031 610.042969 C 247.226562 608.097656 247.074219 604.644531 248.78125 602.144531 C 254 594.460938 252.355469 585.042969 244.578125 580.308594 C 236.726562 575.527344 228.652344 570.996094 220.355469 567.042969 C 181.050781 548.324219 138.886719 539.585938 96.324219 532.722656 C 79.4375 530 62.304688 529.246094 45.648438 535.832031 C 32.472656 541.039062 25.472656 551.578125 26.5625 565.625 C 27.238281 574.207031 31.101562 581.535156 34.863281 588.863281 C 39.863281 598.609375 47.992188 604.152344 58.976562 605.957031 C 68.109375 607.460938 77.292969 607.742188 86.464844 608.210938 C 103.007812 609.070312 118.949219 614.347656 135.335938 615.257812 C 162.664062 616.78125 190.054688 617.25 217.398438 618.839844 C 224.671875 619.257812 232.578125 619.378906 239.25 613.527344 C 240.753906 612.589844 242.851562 611.476562 244.707031 610.042969 Z M 526.320312 469.800781 C 523.164062 449.269531 526.539062 428.414062 522.667969 407.878906 C 520.527344 396.507812 519.75 384.886719 512.058594 375.265625 C 507.925781 366.835938 502.019531 360.285156 491.722656 360.148438 C 480.277344 359.992188 473.125 366.390625 470.140625 379.671875 C 463.601562 408.828125 466.722656 437.523438 474.925781 465.882812 C 476.289062 470.582031 478.34375 475.113281 479.460938 479.871094 C 480.929688 486.074219 484.769531 490.613281 489.882812 493.382812 C 501.398438 499.617188 509.839844 495.472656 519.578125 485.886719 C 523.792969 481.726562 527.3125 476.28125 526.320312 469.800781 Z M 222.117188 516.597656 C 230.160156 529.355469 239.59375 538.675781 253.34375 547.324219 C 260.960938 552.117188 268.230469 557.300781 274.960938 563.355469 C 286.800781 573.984375 305.101562 571.085938 313.125 557.722656 C 313.761719 556.664062 314.617188 555.660156 315.578125 554.90625 C 323.84375 548.40625 324.695312 539.5625 317.136719 532.738281 C 303.46875 520.40625 292.648438 505.628906 280.882812 491.636719 C 272.113281 481.21875 262.421875 471.792969 248.117188 469.566406 C 241.039062 468.464844 233.738281 468.351562 227.933594 473.238281 C 216.105469 483.175781 213.632812 503.140625 222.117188 516.597656 Z M 222.117188 516.597656 " fill-opacity="1" fill-rule="nonzero"/></g></g></g></svg>