<svg xmlns="http://www.w3.org/2000/svg" xmlns:xlink="http://www.w3.org/1999/xlink" width="1080" zoomAndPan="magnify" viewBox="0 0 810 809.999993" height="1080" preserveAspectRatio="xMidYMid meet" version="1.0"><defs><clipPath id="d2c2824cb5"><path d="M 101.75 160.089844 L 564 160.089844 L 564 645 L 101.75 645 Z M 101.75 160.089844 " clip-rule="nonzero"/></clipPath></defs><path fill="#000000" d="M 568.269531 231.242188 L 626.636719 261.472656 L 587.980469 306.433594 L 563.816406 301.75 L 559.085938 306.222656 L 576.742188 320.257812 C 573.855469 323.917969 569.953125 329.070312 572.011719 331.511719 C 573.777344 333.183594 579.179688 330.8125 583.335938 327.734375 L 592.507812 349.875 L 598.59375 344.414062 L 598.71875 318.296875 L 646.269531 285.03125 L 664.480469 346.066406 L 673.035156 340.167969 L 675.269531 261.257812 C 695.175781 245.128906 713.667969 218.839844 707.882812 213.144531 C 702.101562 207.453125 670.082031 223.304688 655.164062 236.4375 L 574.675781 225.0625 Z M 568.269531 231.242188 " fill-opacity="1" fill-rule="nonzero"/><g clip-path="url(#d2c2824cb5)"><path fill="#000000" d="M 223.007812 590.628906 C 226.738281 587.257812 230.382812 583.800781 233.941406 580.25 C 235.433594 578.761719 237.847656 578.765625 239.335938 580.257812 C 240.824219 581.75 240.820312 584.167969 239.328125 585.65625 C 235.679688 589.292969 231.945312 592.839844 228.125 596.292969 C 226.5625 597.707031 224.148438 597.585938 222.738281 596.023438 C 221.324219 594.457031 221.445312 592.042969 223.007812 590.628906 Z M 249.351562 563.710938 C 252.632812 559.925781 255.828125 556.050781 258.941406 552.089844 C 260.242188 550.429688 262.640625 550.144531 264.296875 551.445312 C 265.957031 552.75 266.242188 555.148438 264.941406 556.808594 C 261.753906 560.863281 258.480469 564.832031 255.121094 568.710938 C 253.738281 570.304688 251.328125 570.476562 249.738281 569.097656 C 248.144531 567.714844 247.972656 565.304688 249.351562 563.710938 Z M 272.28125 533.824219 C 283.308594 517.570312 293.105469 500.011719 301.675781 481.148438 C 302.546875 479.226562 304.808594 478.378906 306.726562 479.253906 C 308.644531 480.125 309.492188 482.386719 308.621094 484.308594 C 299.875 503.566406 289.867188 521.5 278.59375 538.109375 C 277.410156 539.855469 275.039062 540.308594 273.296875 539.125 C 271.550781 537.941406 271.097656 535.566406 272.28125 533.824219 Z M 310.460938 460.242188 C 312.273438 455.566406 314.023438 450.8125 315.699219 445.988281 C 316.390625 444 318.566406 442.945312 320.558594 443.636719 C 322.546875 444.332031 323.597656 446.507812 322.90625 448.5 C 321.199219 453.40625 319.421875 458.242188 317.574219 463.007812 C 316.8125 464.972656 314.601562 465.945312 312.636719 465.183594 C 310.671875 464.421875 309.699219 462.210938 310.460938 460.242188 Z M 322.625 424.347656 C 324.023438 419.570312 325.363281 414.726562 326.640625 409.816406 C 327.171875 407.777344 329.257812 406.550781 331.296875 407.082031 C 333.335938 407.613281 334.558594 409.699219 334.027344 411.738281 C 332.730469 416.726562 331.367188 421.644531 329.945312 426.496094 C 329.351562 428.519531 327.234375 429.679688 325.210938 429.085938 C 323.1875 428.492188 322.03125 426.371094 322.625 424.347656 Z M 331.882812 387.703125 C 334.402344 375.980469 336.59375 363.914062 338.460938 351.496094 L 338.4375 351.679688 C 339.269531 343.492188 339.824219 335.546875 340.09375 327.839844 C 340.167969 325.734375 341.9375 324.085938 344.042969 324.160156 C 346.148438 324.234375 347.796875 326.003906 347.722656 328.109375 C 347.445312 335.984375 346.878906 344.097656 346.03125 352.453125 C 346.023438 352.511719 346.015625 352.574219 346.007812 352.632812 C 344.117188 365.203125 341.894531 377.429688 339.34375 389.308594 C 338.902344 391.371094 336.871094 392.679688 334.8125 392.238281 C 332.753906 391.796875 331.441406 389.765625 331.882812 387.703125 Z M 340.0625 305.21875 C 339.851562 300.101562 339.5 295.101562 339.011719 290.226562 C 338.796875 288.128906 340.328125 286.257812 342.421875 286.042969 C 344.519531 285.832031 346.390625 287.363281 346.601562 289.460938 C 347.109375 294.488281 347.472656 299.636719 347.6875 304.910156 C 347.773438 307.015625 346.136719 308.792969 344.03125 308.878906 C 341.921875 308.964844 340.148438 307.328125 340.0625 305.21875 Z M 335.617188 267.996094 C 334.578125 263.015625 333.363281 258.183594 331.976562 253.503906 C 331.375 251.484375 332.527344 249.359375 334.550781 248.757812 C 336.570312 248.160156 338.691406 249.3125 339.292969 251.332031 C 340.738281 256.214844 342.003906 261.246094 343.085938 266.433594 C 343.519531 268.496094 342.195312 270.519531 340.132812 270.949219 C 338.070312 271.382812 336.046875 270.058594 335.617188 267.996094 Z M 324.15625 232.570312 C 320.234375 224.027344 315.59375 216.097656 310.238281 208.78125 L 310.472656 209.070312 C 302.679688 200.34375 294.96875 192.992188 287.34375 187.019531 C 285.683594 185.71875 285.394531 183.320312 286.691406 181.660156 C 287.992188 180 290.390625 179.707031 292.046875 181.007812 C 300.03125 187.261719 308.070312 194.921875 316.164062 203.984375 C 316.246094 204.074219 316.324219 204.171875 316.394531 204.269531 C 322.054688 212 326.953125 220.371094 331.089844 229.382812 C 331.972656 231.296875 331.132812 233.5625 329.214844 234.445312 C 327.300781 235.324219 325.035156 234.484375 324.15625 232.570312 Z M 268.730469 175.085938 C 264.183594 172.835938 259.675781 171.09375 255.203125 169.867188 C 253.171875 169.308594 251.976562 167.207031 252.53125 165.175781 C 253.089844 163.140625 255.191406 161.945312 257.222656 162.503906 C 262.167969 163.863281 267.132812 165.777344 272.117188 168.246094 C 274.003906 169.179688 274.777344 171.472656 273.839844 173.359375 C 272.90625 175.25 270.617188 176.023438 268.730469 175.085938 Z M 233.925781 167.894531 C 229.25 168.332031 224.59375 169.351562 219.960938 170.957031 C 217.96875 171.644531 215.796875 170.589844 215.109375 168.597656 C 214.417969 166.605469 215.472656 164.429688 217.464844 163.742188 C 222.675781 161.9375 227.929688 160.785156 233.21875 160.292969 C 235.316406 160.097656 237.175781 161.640625 237.371094 163.738281 C 237.566406 165.839844 236.023438 167.699219 233.925781 167.894531 Z M 202.46875 181.933594 C 194.039062 191.417969 189.292969 204.429688 188.230469 220.972656 L 188.234375 220.929688 C 187.957031 226.074219 188.097656 231.265625 188.65625 236.507812 C 188.878906 238.605469 187.359375 240.484375 185.261719 240.707031 C 183.167969 240.929688 181.289062 239.410156 181.066406 237.316406 C 180.46875 231.667969 180.316406 226.074219 180.613281 220.523438 C 180.613281 220.511719 180.613281 220.496094 180.613281 220.484375 C 181.789062 202.191406 187.171875 187.652344 196.765625 176.859375 C 198.167969 175.285156 200.578125 175.144531 202.152344 176.546875 C 203.726562 177.945312 203.867188 180.359375 202.46875 181.933594 Z M 193.160156 258.1875 C 194.386719 262.222656 195.957031 267.015625 197.875 272.5625 C 198.5625 274.554688 197.507812 276.726562 195.515625 277.417969 C 193.523438 278.105469 191.351562 277.046875 190.660156 275.054688 C 188.714844 269.417969 187.113281 264.539062 185.859375 260.410156 C 185.246094 258.394531 186.382812 256.261719 188.398438 255.648438 C 190.414062 255.035156 192.546875 256.171875 193.160156 258.1875 Z M 205.445312 295.023438 C 205.777344 297.886719 205.308594 300.480469 204.035156 302.800781 C 204.015625 302.835938 203.996094 302.871094 203.972656 302.90625 C 201.972656 306.296875 197.855469 307.75 191.613281 307.269531 C 189.515625 307.105469 187.941406 305.269531 188.105469 303.167969 C 188.269531 301.066406 190.101562 299.492188 192.203125 299.65625 C 195.28125 299.894531 197.011719 299.683594 197.402344 299.023438 L 197.34375 299.128906 C 197.835938 298.230469 198.011719 297.15625 197.863281 295.902344 C 197.621094 293.808594 199.121094 291.914062 201.214844 291.671875 C 203.308594 291.425781 205.203125 292.929688 205.445312 295.023438 Z M 168.773438 302.617188 C 160.453125 301.039062 155.464844 300.328125 153.796875 300.484375 C 153.648438 300.5 153.5 300.503906 153.347656 300.503906 C 147.636719 300.367188 142.261719 301.355469 137.234375 303.464844 L 137.511719 303.335938 C 130.125 307.160156 124.15625 312.679688 119.597656 319.894531 C 118.472656 321.679688 116.113281 322.210938 114.332031 321.085938 C 112.550781 319.957031 112.019531 317.601562 113.144531 315.816406 C 118.441406 307.433594 125.394531 301.011719 134.003906 296.554688 C 134.09375 296.507812 134.1875 296.464844 134.28125 296.425781 C 140.3125 293.894531 146.730469 292.707031 153.53125 292.867188 L 153.082031 292.882812 C 155.464844 292.660156 161.167969 293.402344 170.195312 295.117188 C 172.265625 295.507812 173.625 297.507812 173.234375 299.578125 C 172.839844 301.648438 170.84375 303.011719 168.773438 302.617188 Z M 111.472656 339.867188 C 111.316406 340.503906 111.164062 341.152344 111.023438 341.804688 C 111.015625 341.835938 111.007812 341.867188 111 341.902344 C 109.976562 346.035156 109.484375 350.078125 109.523438 354.03125 C 109.546875 356.136719 107.855469 357.863281 105.75 357.886719 C 103.640625 357.90625 101.914062 356.214844 101.894531 354.109375 C 101.847656 349.507812 102.414062 344.824219 103.59375 340.066406 L 103.570312 340.160156 C 103.726562 339.453125 103.886719 338.753906 104.054688 338.058594 C 104.554688 336.011719 106.617188 334.753906 108.664062 335.253906 C 110.714844 335.75 111.96875 337.816406 111.472656 339.867188 Z M 114.722656 374.246094 C 116.8125 378.257812 119.539062 382.1875 122.894531 386.042969 C 124.28125 387.632812 124.117188 390.042969 122.527344 391.429688 C 120.941406 392.8125 118.527344 392.648438 117.144531 391.058594 C 113.390625 386.75 110.324219 382.324219 107.957031 377.777344 C 106.980469 375.90625 107.703125 373.601562 109.574219 372.625 C 111.441406 371.652344 113.746094 372.375 114.722656 374.246094 Z M 139.273438 400.71875 C 146.128906 405.707031 154.15625 410.53125 163.355469 415.195312 L 163.027344 415.046875 C 173.15625 419.03125 183.242188 422.597656 193.28125 425.738281 C 195.289062 426.371094 196.410156 428.511719 195.78125 430.523438 C 195.152344 432.535156 193.011719 433.65625 191 433.027344 C 180.789062 429.828125 170.535156 426.203125 160.234375 422.152344 C 160.125 422.109375 160.015625 422.0625 159.90625 422.007812 C 150.34375 417.160156 141.972656 412.121094 134.785156 406.894531 C 133.082031 405.652344 132.703125 403.265625 133.945312 401.5625 C 135.183594 399.855469 137.570312 399.480469 139.273438 400.71875 Z M 215.054688 431.921875 C 219.996094 433.175781 224.921875 434.332031 229.839844 435.378906 C 231.902344 435.820312 233.214844 437.847656 232.777344 439.910156 C 232.335938 441.972656 230.308594 443.289062 228.246094 442.847656 C 223.234375 441.777344 218.210938 440.601562 213.175781 439.320312 C 211.132812 438.800781 209.898438 436.722656 210.417969 434.679688 C 210.933594 432.636719 213.011719 431.402344 215.054688 431.921875 Z M 252.117188 439.445312 C 257.101562 440.199219 262.074219 440.84375 267.039062 441.382812 C 269.132812 441.609375 270.648438 443.492188 270.417969 445.589844 C 270.191406 447.683594 268.308594 449.199219 266.214844 448.972656 C 261.148438 448.421875 256.066406 447.761719 250.976562 446.992188 C 248.894531 446.679688 247.460938 444.734375 247.773438 442.648438 C 248.089844 440.5625 250.035156 439.128906 252.117188 439.445312 Z M 289.621094 443.09375 C 309.878906 443.964844 329.9375 443.015625 349.804688 440.253906 C 351.890625 439.960938 353.816406 441.421875 354.109375 443.507812 C 354.398438 445.597656 352.941406 447.527344 350.855469 447.816406 C 330.53125 450.644531 310.011719 451.613281 289.292969 450.722656 C 287.1875 450.632812 285.554688 448.851562 285.644531 446.746094 C 285.734375 444.636719 287.515625 443.003906 289.621094 443.09375 Z M 372.085938 436.375 C 376.996094 435.347656 381.894531 434.207031 386.785156 432.953125 C 388.824219 432.429688 390.90625 433.660156 391.425781 435.703125 C 391.949219 437.746094 390.71875 439.824219 388.679688 440.347656 C 383.679688 441.628906 378.671875 442.796875 373.648438 443.847656 C 371.585938 444.28125 369.5625 442.957031 369.132812 440.894531 C 368.699219 438.828125 370.023438 436.804688 372.085938 436.375 Z M 408.496094 426.617188 C 413.253906 425.0625 417.996094 423.394531 422.730469 421.621094 C 424.703125 420.882812 426.902344 421.882812 427.640625 423.859375 C 428.382812 425.832031 427.378906 428.03125 425.40625 428.773438 C 420.574219 430.582031 415.726562 432.285156 410.871094 433.875 C 408.867188 434.53125 406.710938 433.4375 406.058594 431.433594 C 405.402344 429.429688 406.496094 427.273438 408.496094 426.617188 Z M 443.699219 413.023438 C 461.589844 405.050781 479.3125 395.507812 496.875 384.394531 C 498.65625 383.269531 501.011719 383.796875 502.136719 385.582031 C 503.265625 387.363281 502.734375 389.71875 500.953125 390.847656 C 483.082031 402.15625 465.03125 411.875 446.804688 419.996094 C 444.882812 420.855469 442.625 419.988281 441.769531 418.0625 C 440.910156 416.136719 441.777344 413.878906 443.699219 413.023438 Z M 515.785156 371.777344 C 519.878906 368.902344 523.96875 365.941406 528.046875 362.890625 C 529.734375 361.628906 532.125 361.976562 533.386719 363.664062 C 534.648438 365.355469 534.300781 367.746094 532.613281 369.007812 C 528.472656 372.101562 524.324219 375.109375 520.167969 378.027344 C 518.441406 379.238281 516.0625 378.820312 514.851562 377.097656 C 513.640625 375.371094 514.058594 372.988281 515.785156 371.777344 Z M 545.929688 348.921875 C 549.609375 345.925781 553.277344 342.855469 556.9375 339.71875 C 558.539062 338.347656 560.949219 338.53125 562.320312 340.132812 C 563.691406 341.734375 563.503906 344.144531 561.902344 345.515625 C 558.195312 348.695312 554.476562 351.804688 550.75 354.839844 C 549.117188 356.171875 546.714844 355.925781 545.382812 354.292969 C 544.050781 352.65625 544.296875 350.253906 545.929688 348.921875 Z M 154.894531 637.597656 C 173.136719 628.160156 190.070312 617.351562 205.699219 605.167969 C 207.359375 603.871094 209.757812 604.167969 211.054688 605.832031 C 212.347656 607.496094 212.050781 609.894531 210.390625 611.191406 C 194.390625 623.664062 177.058594 634.726562 158.398438 644.378906 C 156.527344 645.347656 154.226562 644.613281 153.257812 642.742188 C 152.289062 640.871094 153.023438 638.566406 154.894531 637.597656 Z M 154.894531 637.597656 " fill-opacity="1" fill-rule="nonzero"/></g></svg>