<svg xmlns="http://www.w3.org/2000/svg" xmlns:xlink="http://www.w3.org/1999/xlink" width="7000" zoomAndPan="magnify" viewBox="0 0 5250 2250.000011" height="3000" preserveAspectRatio="xMidYMid meet" version="1.0"><path fill="#ffb6c1" d="M 5.363281 1174.6875 C 56.410156 1143.105469 109.839844 1117.058594 164.320312 1092.917969 C 218.898438 1068.96875 274.710938 1048.074219 331.292969 1029.277344 C 387.96875 1010.769531 445.597656 995.3125 503.703125 981.667969 C 518.203125 978.136719 532.898438 975.464844 547.496094 972.316406 C 562.09375 969.457031 576.691406 965.828125 591.386719 963.636719 C 620.867188 958.863281 650.160156 952.855469 679.832031 949.417969 C 916.644531 916.121094 1159.46875 924.230469 1395.328125 969.359375 C 1513.449219 991.496094 1629.183594 1024.984375 1742.53125 1064.867188 L 1784.992188 1080.132812 L 1806.171875 1087.765625 C 1813.136719 1090.4375 1820.101562 1093.394531 1827.066406 1096.257812 L 1910.457031 1130.605469 C 1938.128906 1142.246094 1965.035156 1155.699219 1992.417969 1168.105469 L 2033.253906 1187.1875 C 2046.800781 1193.675781 2059.96875 1200.925781 2073.328125 1207.796875 L 2153.089844 1249.777344 C 2179.234375 1264.566406 2204.996094 1279.925781 2230.949219 1295.097656 L 2383.320312 1384.976562 C 2485.316406 1442.222656 2588.265625 1497.65625 2694.746094 1545.460938 L 2734.4375 1563.777344 C 2747.605469 1569.980469 2761.25 1575.226562 2774.605469 1580.953125 L 2855.230469 1614.726562 C 2882.421875 1625.222656 2909.710938 1635.144531 2936.996094 1645.355469 C 2950.640625 1650.316406 2964.191406 1655.753906 2977.929688 1660.335938 L 3019.339844 1673.980469 L 3060.746094 1687.621094 C 3074.488281 1692.296875 3088.320312 1696.6875 3102.347656 1700.503906 L 3185.929688 1724.644531 C 3213.882812 1732.277344 3242.125 1738.667969 3270.175781 1745.824219 C 3284.296875 1749.164062 3298.226562 1753.074219 3312.347656 1755.9375 L 3354.808594 1764.621094 C 3467.871094 1788.570312 3581.984375 1806.125 3696.480469 1815.1875 C 3725.007812 1818.621094 3753.726562 1819.386719 3782.347656 1821.105469 L 3825.285156 1823.394531 L 3868.21875 1823.964844 C 3896.84375 1824.347656 3925.5625 1825.492188 3954.1875 1824.0625 L 3997.121094 1822.820312 L 4018.589844 1822.152344 C 4025.746094 1821.773438 4032.804688 1821.105469 4039.960938 1820.53125 C 4268.285156 1807.652344 4494.886719 1755.460938 4701.453125 1654.992188 L 4711.28125 1650.507812 L 4720.726562 1645.449219 L 4739.714844 1635.335938 L 4777.785156 1615.109375 C 4784.273438 1611.863281 4790.378906 1608.144531 4796.484375 1604.328125 L 4814.898438 1593.070312 L 4851.917969 1570.742188 C 4876.15625 1555.285156 4899.53125 1538.398438 4923.574219 1522.175781 C 4946.757812 1505.003906 4969.183594 1486.683594 4992.269531 1469.128906 C 5082.4375 1396.042969 5163.25 1310.742188 5235.667969 1217.335938 C 5237.957031 1214.378906 5242.15625 1213.902344 5245.113281 1216.191406 C 5247.691406 1218.195312 5248.453125 1221.820312 5246.925781 1224.683594 C 5190.824219 1330.113281 5118.023438 1427.335938 5033.488281 1514.164062 C 5011.640625 1535.058594 4989.980469 1556.429688 4967.558594 1576.847656 C 4944.28125 1596.21875 4921.476562 1616.445312 4897.527344 1635.242188 C 4873.101562 1653.273438 4848.867188 1671.878906 4823.488281 1688.863281 L 4784.941406 1713.574219 L 4765.667969 1725.882812 L 4756.03125 1732.085938 L 4746.109375 1737.714844 C 4535.152344 1861.75 4293.664062 1932.257812 4050.363281 1953.632812 C 4042.730469 1954.394531 4035.191406 1955.253906 4027.558594 1955.828125 L 4004.660156 1957.066406 L 3958.863281 1959.546875 C 3928.332031 1961.742188 3897.796875 1961.359375 3867.265625 1961.644531 C 3852 1961.742188 3836.734375 1961.835938 3821.46875 1961.742188 L 3775.765625 1959.546875 C 3745.332031 1957.925781 3714.796875 1957.160156 3684.554688 1953.726562 L 3639.136719 1949.339844 C 3624.0625 1947.621094 3608.796875 1946.570312 3593.816406 1944.089844 L 3503.554688 1930.828125 C 3443.921875 1919.664062 3384.195312 1908.5 3325.515625 1893.523438 L 3281.4375 1882.644531 C 3266.742188 1879.113281 3252.335938 1874.441406 3237.738281 1870.433594 C 3208.734375 1861.84375 3179.535156 1854.023438 3150.722656 1844.957031 L 3064.753906 1816.429688 C 3050.347656 1811.847656 3036.226562 1806.695312 3022.105469 1801.355469 L 2979.742188 1785.515625 L 2937.378906 1769.773438 C 2923.261719 1764.523438 2909.519531 1758.417969 2895.589844 1752.695312 L 2812.199219 1718.058594 L 2730.050781 1680.847656 C 2716.40625 1674.550781 2702.570312 1668.730469 2689.117188 1661.957031 L 2648.757812 1641.921875 C 2540.46875 1589.921875 2436.277344 1530.480469 2333.421875 1469.226562 L 2182.289062 1374.863281 C 2157.484375 1359.597656 2132.769531 1344.042969 2107.867188 1328.96875 L 2031.539062 1286.320312 C 2018.753906 1279.257812 2006.253906 1271.816406 1993.277344 1265.136719 L 1954.253906 1245.484375 C 1928.113281 1232.601562 1902.445312 1218.671875 1875.921875 1206.652344 L 1796.15625 1170.871094 C 1789.476562 1167.914062 1782.894531 1164.859375 1776.214844 1161.996094 L 1755.894531 1153.984375 L 1715.246094 1137.953125 C 1606.667969 1095.878906 1495.324219 1059.90625 1381.402344 1034.910156 C 1154.128906 982.910156 917.886719 966.210938 684.703125 990.445312 C 655.503906 992.738281 626.59375 997.601562 597.398438 1001.226562 C 582.800781 1002.945312 568.488281 1005.902344 553.988281 1008.195312 C 539.578125 1010.769531 524.980469 1012.867188 510.667969 1015.828125 C 453.136719 1027.179688 395.890625 1040.441406 339.308594 1056.472656 C 282.824219 1072.597656 226.914062 1091.011719 172.050781 1112.289062 C 117.378906 1133.757812 63.089844 1157.511719 12.140625 1186.136719 L 11.855469 1186.328125 C 8.609375 1188.140625 4.605469 1186.996094 2.792969 1183.75 C 1.261719 1180.507812 2.3125 1176.5 5.363281 1174.6875 Z M 5.363281 1174.6875 " fill-opacity="1" fill-rule="nonzero"/></svg>